<svg width="839" height="194" viewBox="0 0 839 194" fill="none" xmlns="http://www.w3.org/2000/svg"><defs><linearGradient id="cpgrad" x1="0" y1="0" x2="0" y2="1"><stop offset="0%" stop-color="#1A1812"/><stop offset="45%" stop-color="#5A3D14"/><stop offset="60%" stop-color="#8A5A1F"/><stop offset="100%" stop-color="#1A1812"/></linearGradient></defs>
<path d="M140.535 86.6728C140.34 86.515 140.141 86.3561 139.936 86.1971C137.611 84.3961 135.142 82.9259 132.596 81.8261C129.376 80.4353 126.029 79.6382 122.649 79.4571C117.538 79.1836 112.326 80.3114 107.158 82.8125C105.443 83.6435 103.715 84.6334 101.994 85.7741C104.349 87.0632 106.693 87.9935 108.963 88.6503C113.466 86.3245 117.911 85.2645 122.267 85.4854C126.587 85.7051 130.76 87.1695 134.694 89.8436C129.598 91.9882 123.915 93.0646 118.251 92.9548C111.963 92.8344 103.861 91.2286 96.1085 85.4503C94.7458 86.986 93.3202 88.4213 91.834 89.7524C93.9177 91.3641 96.112 92.7771 98.4111 93.9833C101.533 95.6218 104.854 96.8782 108.284 97.7185C111.478 98.5016 114.793 98.9305 118.137 98.9948C118.435 99.0006 118.732 99.003 119.03 99.003C125.276 99.003 131.523 97.7489 137.151 95.36C138.049 94.979 138.92 94.5723 139.762 94.1434C141.668 93.1722 143.419 92.0852 144.978 90.9118C144.025 89.8319 142.526 88.2822 140.538 86.674L140.535 86.6728Z" fill="url(#cpgrad)"/>
<path d="M83.8315 64.5182C85.5401 63.0783 86.9541 61.2972 87.9685 59.2799C87.024 56.9939 86.5022 54.4881 86.5022 51.8631C86.5022 48.0694 87.5877 44.4487 89.5561 41.3714C91.5233 44.4475 92.6193 48.0729 92.6193 51.8631C92.6193 58.394 89.3918 64.1816 84.4534 67.7065C85.6577 69.2422 86.8434 70.8726 88.007 72.5942C89.1391 71.7819 90.2071 70.8726 91.2041 69.8722C93.5347 67.5335 95.3645 64.8104 96.6422 61.7775C97.9665 58.6348 98.6385 55.2992 98.6385 51.862C98.6385 46.3233 96.8518 41.0535 93.6908 36.749C92.5016 35.1303 91.1191 33.6484 89.563 32.3406C88.0186 33.6414 86.6291 35.1245 85.433 36.7514C84.8005 37.6104 84.2217 38.5092 83.701 39.4418C82.6644 41.3013 81.8643 43.2858 81.3227 45.3416C80.7648 47.4593 80.4829 49.6531 80.4829 51.862C80.4829 55.2992 81.155 58.6348 82.4781 61.7775C82.8764 62.7218 83.3271 63.6358 83.8303 64.5182H83.8315Z" fill="url(#cpgrad)"/>
<path d="M49.8695 61.7787C51.1484 64.8116 52.9781 67.5359 55.3076 69.8734C57.637 72.2108 60.352 74.0481 63.3744 75.3302C66.5052 76.6591 69.8293 77.3334 73.2547 77.3334C74.4241 77.3334 75.5818 77.2551 76.7244 77.0985C75.1508 74.9305 73.5529 72.9787 71.9409 71.249C64.2607 70.7301 57.7942 65.6987 55.1596 58.7809C56.2533 58.8242 57.3714 58.9738 58.5082 59.232C66.0101 60.9372 73.667 67.3068 80.6495 77.6513C81.5323 78.9591 82.4525 80.2108 83.4075 81.4053C84.8611 80.1501 86.2937 78.7242 87.689 77.1055C86.9914 76.2079 86.3053 75.2612 85.6321 74.2643C81.2132 67.7182 76.5019 62.577 71.6322 58.9819C67.6023 56.0087 63.4443 54.0697 59.2711 53.2201C57.4786 52.8554 55.6686 52.6953 53.9099 52.7421C52.7033 52.7736 51.5211 52.9022 50.3843 53.1289C49.371 53.3299 48.5499 53.5765 47.9419 53.7916C48.0467 55.2093 48.2692 56.6071 48.6058 57.9768C48.9237 59.2706 49.3442 60.5387 49.866 61.7775L49.8695 61.7787Z" fill="url(#cpgrad)"/>
<path d="M105.92 68.3857C110.731 63.4641 115.709 60.3483 120.621 59.2321C121.754 58.975 122.869 58.8242 123.959 58.781C121.175 66.0891 114.114 71.2935 105.864 71.2935C102.297 71.2935 98.9515 70.3199 96.0782 68.6241C95.2256 69.7893 94.2833 70.8926 93.2514 71.9281C92.8251 72.3547 92.3884 72.7673 91.9399 73.1635C93.2153 74.0038 94.5652 74.7272 95.9838 75.3291C99.1146 76.658 102.439 77.3323 105.864 77.3323C109.29 77.3323 112.614 76.658 115.746 75.3291C118.768 74.0458 121.483 72.2098 123.812 69.8723C126.142 67.5348 127.973 64.8105 129.25 61.7776C129.766 60.5528 130.185 59.2976 130.5 58.019C130.844 56.634 131.069 55.221 131.176 53.787C130.569 53.5719 129.752 53.3277 128.744 53.1278C127.605 52.9011 126.419 52.7725 125.209 52.741C123.454 52.6954 121.647 52.8555 119.858 53.2202C115.685 54.0698 111.526 56.0088 107.497 58.982C104.627 61.0998 101.813 63.7563 99.0808 66.9189C101.151 67.8621 103.447 68.3868 105.864 68.3868C105.883 68.3868 105.901 68.3868 105.92 68.3868V68.3857Z" fill="url(#cpgrad)"/>
<path d="M91.8792 76.5317C88.8486 80.551 85.6025 83.6294 82.3052 85.9727C83.8601 87.1917 85.4208 88.5369 86.9745 90.0002C90.8985 87.0199 94.4369 83.3384 97.549 78.9907C96.6393 78.709 95.7413 78.3818 94.8562 78.0055C93.8312 77.5707 92.8377 77.0775 91.8792 76.5305V76.5317Z" fill="url(#cpgrad)"/>
<path d="M60.997 98.9937C64.3421 98.9294 67.6569 98.5004 70.8493 97.7174C72.6069 97.2873 74.3342 96.7473 76.023 96.1034C73.9242 94.3701 71.844 92.9256 69.786 91.772C66.5981 92.5796 63.5745 92.9034 60.8817 92.9548C55.2025 93.0646 49.5047 91.9824 44.3975 89.8273C48.3039 87.1766 52.448 85.7191 56.74 85.4889C65.3775 85.0249 74.3575 89.6005 83.4586 99.0918C84.7293 97.7291 86.0617 96.2787 87.4605 94.7359C87.4885 94.7056 87.5164 94.6752 87.5444 94.6436C85.1987 92.2208 82.8285 90.0704 80.4757 88.2308C77.6431 86.016 74.7605 84.1928 71.9092 82.8137C66.7414 80.3138 61.5293 79.1848 56.4185 79.4582C53.0385 79.6394 49.6911 80.4365 46.4718 81.8273C43.9258 82.927 41.4566 84.3973 39.1318 86.1983C38.9373 86.3491 38.7474 86.4999 38.5611 86.6495C36.5752 88.2518 35.0762 89.798 34.1177 90.8826C35.6737 92.0584 37.4243 93.1488 39.3286 94.1212C40.1835 94.5583 41.0699 94.972 41.983 95.36C47.6121 97.7489 53.8573 99.003 60.1037 99.003C60.4007 99.003 60.7 99.0007 60.997 98.9948V98.9937Z" fill="url(#cpgrad)"/>
<path d="M129.662 119.998C127.484 113.058 122.806 108.209 116.132 105.977C113.176 104.988 110.368 104.621 107.786 104.884C105.962 105.07 104.248 105.568 102.669 106.368C104.435 108.104 106.083 109.647 107.633 111.012C109.561 110.653 111.765 110.883 114.229 111.707C119.006 113.306 122.249 116.646 123.866 121.637C123.993 122.029 124.104 122.417 124.203 122.8C116.452 122.477 108.604 116.968 95.6294 103.34C94.1886 104.924 92.8259 106.401 91.5308 107.784C94.4181 110.813 96.9548 113.34 99.2785 115.508C103.715 119.647 107.607 122.677 111.177 124.769C115.847 127.506 120.292 128.852 124.909 128.852H124.926C126.892 128.852 128.889 128.606 130.947 128.118C130.928 126.731 130.789 124.554 130.224 122.076C130.07 121.402 129.886 120.706 129.664 119.998H129.662Z" fill="url(#cpgrad)"/>
<path d="M161.104 30.6623V82.858C161.104 90.9737 160.073 98.8966 158.039 106.408C156.19 113.243 153.469 119.884 149.955 126.147C144.059 136.656 135.855 146.297 125.57 154.801C121.546 158.128 117.19 161.287 112.622 164.191C108.971 166.513 105.175 168.678 101.341 170.628C99.8919 171.364 98.5502 172.013 97.3354 172.578C94.5948 173.852 92.5053 174.701 91.3161 175.159V134.516C91.3161 128.329 92.0487 122.929 93.493 118.467C93.868 117.308 94.2908 116.218 94.7578 115.199C95.636 116.058 96.484 116.869 97.3051 117.635C98.0388 118.32 98.7586 118.974 99.4656 119.602C99.3806 119.84 99.2979 120.085 99.2175 120.334C97.9678 124.192 97.3342 128.962 97.3342 134.515V165.884C97.8047 165.651 98.2904 165.408 98.7878 165.155C104.544 162.218 113.223 157.207 121.89 150.017C143.916 131.742 155.083 109.146 155.083 82.8569V34.6279C139.188 28.0876 114.916 24.2109 89.5679 24.2109C64.2201 24.2109 39.9439 28.0888 24.049 34.6314V82.858C24.049 109.215 35.1535 131.856 57.0548 150.15C65.6469 157.328 74.2414 162.322 79.9368 165.247C80.5134 165.543 81.0724 165.824 81.6117 166.091V134.517C81.6117 128.896 80.9979 124.092 79.7866 120.24C78.6265 116.549 76.9749 113.909 74.8761 112.391C72.3603 110.571 69.1609 110.347 65.0948 111.707C60.2601 113.325 56.9989 116.724 55.4021 121.812C55.3007 122.136 55.2087 122.457 55.126 122.773C58.4559 122.585 61.702 121.457 65.2206 119.337C67.3695 118.043 69.6512 116.374 72.2124 114.195C72.5525 114.344 72.8751 114.527 73.1815 114.749C74.3042 115.562 75.3082 116.931 76.1375 118.77C73.3305 121.156 70.7472 123.053 68.3176 124.516C63.5597 127.382 59.0581 128.81 54.3969 128.856C54.32 128.856 54.2432 128.856 54.1651 128.856C52.2725 128.856 50.3518 128.629 48.3753 128.178C48.3905 126.805 48.5244 124.625 49.0858 122.137C49.2419 121.444 49.4306 120.727 49.66 119.998C51.838 113.058 56.5167 108.209 63.1905 105.977C66.1186 104.997 68.8918 104.627 71.4309 104.876C74.0014 105.128 76.3448 106.008 78.3947 107.49C81.5674 109.785 83.9667 113.464 85.5251 118.422C86.9216 122.863 87.6286 128.277 87.6286 134.516V175.351C86.6549 174.982 84.5363 174.144 81.6093 172.784C80.2909 172.17 78.8082 171.452 77.1927 170.623C73.3958 168.672 69.6372 166.507 66.0219 164.184C61.4982 161.28 57.1852 158.12 53.2019 154.791C43.0199 146.286 34.8984 136.644 29.062 126.136C25.5841 119.874 22.8925 113.235 21.0615 106.401C19.0501 98.8919 18.0298 90.9702 18.0298 82.858V30.6647L19.8246 29.8699C23.8743 28.0771 28.5192 26.4409 33.6288 25.0045C38.7291 23.5705 44.3046 22.3339 50.2016 21.3277C56.1859 20.3062 62.5196 19.5208 69.0269 18.9914C75.7147 18.4479 82.625 18.1709 89.5679 18.1709C96.5107 18.1709 103.42 18.4467 110.106 18.9914C116.613 19.5208 122.946 20.3062 128.929 21.3277C134.825 22.3328 140.401 23.5705 145.501 25.0033C150.611 26.4397 155.256 28.0759 159.305 29.8676L161.101 30.6623H161.104Z" fill="url(#cpgrad)"/>
<path d="M161.104 30.6623V82.858C161.104 90.9737 160.073 98.8966 158.039 106.408C156.19 113.243 153.469 119.884 149.955 126.147C144.059 136.656 135.855 146.297 125.57 154.801C121.546 158.128 117.19 161.287 112.622 164.191C108.971 166.513 105.175 168.678 101.341 170.628C99.8919 171.364 98.5502 172.013 97.3354 172.578C94.5948 173.852 92.5053 174.701 91.3161 175.159V134.516C91.3161 128.329 92.0487 122.929 93.493 118.467C93.868 117.308 94.2908 116.218 94.7578 115.199C95.636 116.058 96.484 116.869 97.3051 117.635C98.0388 118.32 98.7586 118.974 99.4656 119.602C99.3806 119.84 99.2979 120.085 99.2175 120.334C97.9678 124.192 97.3342 128.962 97.3342 134.515V165.884C97.8047 165.651 98.2904 165.408 98.7878 165.155C104.544 162.218 113.223 157.207 121.89 150.017C143.916 131.742 155.083 109.146 155.083 82.8569V34.6279C139.188 28.0876 114.916 24.2109 89.5679 24.2109C64.2201 24.2109 39.9439 28.0888 24.049 34.6314V82.858C24.049 109.215 35.1535 131.856 57.0548 150.15C65.6469 157.328 74.2414 162.322 79.9368 165.247C80.5134 165.543 81.0724 165.824 81.6117 166.091V134.517C81.6117 128.896 80.9979 124.092 79.7866 120.24C78.6265 116.549 76.9749 113.909 74.8761 112.391C72.3603 110.571 69.1609 110.347 65.0948 111.707C60.2601 113.325 56.9989 116.724 55.4021 121.812C55.3007 122.136 55.2087 122.457 55.126 122.773C58.4559 122.585 61.702 121.457 65.2206 119.337C67.3695 118.043 69.6512 116.374 72.2124 114.195C72.5525 114.344 72.8751 114.527 73.1815 114.749C74.3042 115.562 75.3082 116.931 76.1375 118.77C73.3305 121.156 70.7472 123.053 68.3176 124.516C63.5597 127.382 59.0581 128.81 54.3969 128.856C54.32 128.856 54.2432 128.856 54.1651 128.856C52.2725 128.856 50.3518 128.629 48.3753 128.178C48.3905 126.805 48.5244 124.625 49.0858 122.137C49.2419 121.444 49.4306 120.727 49.66 119.998C51.838 113.058 56.5167 108.209 63.1905 105.977C66.1186 104.997 68.8918 104.627 71.4309 104.876C74.0014 105.128 76.3448 106.008 78.3947 107.49C81.5674 109.785 83.9667 113.464 85.5251 118.422C86.9216 122.863 87.6286 128.277 87.6286 134.516V175.351C86.6549 174.982 84.5363 174.144 81.6093 172.784C80.2909 172.17 78.8082 171.452 77.1927 170.623C73.3958 168.672 69.6372 166.507 66.0219 164.184C61.4982 161.28 57.1852 158.12 53.2019 154.791C43.0199 146.286 34.8984 136.644 29.062 126.136C25.5841 119.874 22.8925 113.235 21.0615 106.401C19.0501 98.8919 18.0298 90.9702 18.0298 82.858V30.6647L19.8246 29.8699C23.8743 28.0771 28.5192 26.4409 33.6288 25.0045C38.7291 23.5705 44.3046 22.3339 50.2016 21.3277C56.1859 20.3062 62.5196 19.5208 69.0269 18.9914C75.7147 18.4479 82.625 18.1709 89.5679 18.1709C96.5107 18.1709 103.42 18.4467 110.106 18.9914C116.613 19.5208 122.946 20.3062 128.929 21.3277C134.825 22.3328 140.401 23.5705 145.501 25.0033C150.611 26.4397 155.256 28.0759 159.305 29.8676L161.101 30.6623H161.104Z" fill="url(#cpgrad)"/>
<path d="M85.0124 110.398C87.6761 107.684 90.6438 104.52 94.0564 100.756C95.2991 99.3864 96.5396 98.109 97.7765 96.9216C97.5389 96.8024 97.3025 96.6808 97.0672 96.5581C95.4622 95.7154 93.905 94.7793 92.399 93.752C91.4637 94.6881 90.5308 95.6687 89.6037 96.6913C86.4322 100.188 83.5937 103.221 81.0186 105.854C82.521 107.1 83.8546 108.618 85.0112 110.398H85.0124Z" fill="url(#cpgrad)"/>
<path d="M233.789 122.626C233.789 116.021 229.26 116.209 224.805 119.191V134.668H219.747V114.524C219.747 113.316 219.483 112.221 219.068 111.013L224.805 106.861V118.701C232.619 113.152 238.772 113.982 238.772 121.683V134.668H233.789V122.626Z" fill="url(#cpgrad)"/>
<path d="M263.685 132.063C261.722 135.951 256.362 136.404 256.211 131.912C250.927 135.385 243.641 137.008 243.641 131.572C243.641 127.533 251.719 124.325 256.249 122.173V121.305C256.249 119.078 256.551 115.794 254.173 115.794C251.229 115.794 249.19 118.399 244.132 123.57L245.68 117.342C247.831 116.436 251.493 115.152 254.324 115.152C258.401 115.152 261.307 117.077 261.307 120.965V131.346C261.307 132.743 262.062 134.29 263.61 132.063H263.685ZM248.775 129.723C248.775 133.875 252.55 133.498 256.211 131.421L256.249 122.664C252.889 124.4 248.775 126.477 248.775 129.723Z" fill="url(#cpgrad)"/>
<path d="M268.484 121.72C268.484 120.173 268.258 119.418 266.559 118.097L273.542 115.152V117.191C279.469 112.737 287.697 115.983 287.697 124.325C287.697 133.045 279.695 137.348 273.542 133.988V136.744C273.542 138.556 273.693 139.65 274.448 140.971L274.599 141.236L268.484 145.916V121.72ZM273.542 133.498C278.223 135.8 282.639 133.309 282.639 125.231C282.639 117.681 278.034 114.36 273.542 117.681V133.498Z" fill="url(#cpgrad)"/>
<path d="M292.581 114.524C292.581 113.316 292.317 112.221 291.902 111.013L297.64 106.861V134.668H292.581V114.524Z" fill="url(#cpgrad)"/>
<path d="M322.499 132.063C320.536 135.951 315.176 136.404 315.025 131.912C309.74 135.385 302.455 137.008 302.455 131.572C302.455 127.533 310.533 124.325 315.063 122.173V121.305C315.063 119.078 315.365 115.794 312.986 115.794C310.042 115.794 308.004 118.399 302.946 123.57L304.493 117.342C306.645 116.436 310.306 115.152 313.137 115.152C317.214 115.152 320.121 117.077 320.121 120.965V131.346C320.121 132.743 320.876 134.29 322.423 132.063H322.499ZM307.589 129.723C307.589 133.875 311.363 133.498 315.025 131.421L315.063 122.664C311.703 124.4 307.589 126.477 307.589 129.723Z" fill="url(#cpgrad)"/>
<path d="M327.425 134.668V122.815C327.425 121.192 327.387 120.173 326.821 118.399L332.483 115.152V130.176C332.483 131.799 332.709 133.271 333.162 134.668H327.425ZM329.765 113.642C328.368 113.642 327.198 112.774 326.896 111.529C326.405 109.528 328.217 107.867 330.256 107.867C331.539 107.867 332.936 108.66 333.275 109.943C333.691 111.717 332.105 113.642 329.765 113.642Z" fill="url(#cpgrad)"/>
<path d="M352.15 122.626C352.15 116.021 347.621 116.209 343.167 119.191V130.176C343.167 132.139 343.355 133.649 343.771 134.517L343.846 134.668H338.108V122.815C338.108 120.965 337.882 119.569 337.542 118.512L337.504 118.399L343.167 115.152V118.701C350.98 113.152 357.133 113.982 357.133 121.683V134.668H352.15V122.626Z" fill="url(#cpgrad)"/>
<path d="M403.497 122.815C403.497 120.965 403.27 119.569 402.931 118.512L402.893 118.399L408.555 115.152V119.871C410.669 117.493 414.519 115.152 417.275 115.152L415.878 119.682C413.16 118.889 410.216 119.04 408.555 120.475V130.176C408.555 132.139 408.744 133.649 409.159 134.517L409.234 134.668H403.497V122.815Z" fill="url(#cpgrad)"/>
<path d="M436.133 132.78C431.867 136.329 425.601 135.762 422.015 131.61C418.467 127.307 419.071 121.079 423.299 117.493C427.526 113.944 433.755 114.473 437.303 118.776C440.851 122.966 440.323 129.27 436.133 132.78ZM432.924 129.081C436.925 125.722 438.775 121.381 436.812 119.04C434.812 116.662 430.282 117.87 426.318 121.23C422.242 124.589 420.43 128.93 422.393 131.308C424.356 133.649 428.885 132.478 432.924 129.081Z" fill="url(#cpgrad)"/>
<path d="M442.909 116.511H439.511V115.794H442.909C442.909 110.623 450.911 106.697 456.309 106.659C457.517 106.659 458.611 106.848 459.442 107.263L456.309 111.151C455.063 109.905 452.798 108.32 450.986 108.32C449.363 108.32 448.042 109.566 448.004 113.303L447.967 115.794H452.572V116.511H447.967V131.195C447.967 132.478 447.967 133.12 448.344 134.592V134.668H442.909V116.511Z" fill="url(#cpgrad)"/>
<path d="M474.058 127.911C469.151 138.895 454.996 136.706 454.996 125.608C454.996 113.378 473.265 111.415 473.19 122.211H459.601C459.601 122.777 459.601 123.381 459.676 124.023C460.507 133.158 469.49 135.611 473.907 127.873L474.058 127.911ZM459.638 121.494H468.245L468.207 121.116C467.641 115.115 460.242 113.831 459.638 121.494Z" fill="url(#cpgrad)"/>
<path d="M486.888 135.121C484.699 135.121 481.754 134.705 479.754 134.064L477.036 126.288H477.187C480.282 131.648 484.397 134.215 487.794 134.215C490.134 134.215 491.342 133.045 491.38 131.837C491.418 130.666 490.361 129.421 488.209 128.553C486.133 127.722 484.812 127.231 481.226 125.42C479.074 124.325 478.093 122.626 478.093 120.928C478.093 118.059 480.924 115.152 486.02 115.152C487.945 115.152 490.889 115.492 492.965 116.021L494.928 122.249L494.777 122.287C492.814 119.569 490.474 115.945 485.265 115.945C482.736 115.945 481.113 116.926 481.037 118.134C481.037 118.814 481.452 119.569 482.509 120.248C484.095 121.267 489.53 123.457 491.569 124.514C493.984 125.759 494.928 127.382 494.928 128.968C494.928 132.101 491.078 135.121 486.888 135.121Z" fill="url(#cpgrad)"/>
<path d="M508.622 135.121C506.433 135.121 503.489 134.705 501.488 134.064L498.77 126.288H498.921C502.016 131.648 506.131 134.215 509.528 134.215C511.869 134.215 513.076 133.045 513.114 131.837C513.152 130.666 512.095 129.421 509.943 128.553C507.867 127.722 506.546 127.231 502.96 125.42C500.809 124.325 499.827 122.626 499.827 120.928C499.827 118.059 502.658 115.152 507.754 115.152C509.679 115.152 512.623 115.492 514.7 116.021L516.662 122.249L516.511 122.287C514.549 119.569 512.208 115.945 506.999 115.945C504.47 115.945 502.847 116.926 502.771 118.134C502.771 118.814 503.187 119.569 504.244 120.248C505.829 121.267 511.265 123.457 513.303 124.514C515.719 125.759 516.662 127.382 516.662 128.968C516.662 132.101 512.812 135.121 508.622 135.121Z" fill="url(#cpgrad)"/>
<path d="M521.988 134.668V122.815C521.988 121.192 521.951 120.173 521.384 118.399L527.046 115.152V130.176C527.046 131.799 527.273 133.271 527.726 134.668H521.988ZM524.329 113.642C522.932 113.642 521.762 112.774 521.46 111.529C520.969 109.528 522.781 107.867 524.819 107.867C526.103 107.867 527.499 108.66 527.839 109.943C528.254 111.717 526.669 113.642 524.329 113.642Z" fill="url(#cpgrad)"/>
<path d="M548.325 132.78C544.06 136.329 537.794 135.762 534.208 131.61C530.659 127.307 531.263 121.079 535.491 117.493C539.719 113.944 545.947 114.473 549.495 118.776C553.043 122.966 552.515 129.27 548.325 132.78ZM545.117 129.081C549.118 125.722 550.967 121.381 549.005 119.04C547.004 116.662 542.474 117.87 538.511 121.23C534.434 124.589 532.622 128.93 534.585 131.308C536.548 133.649 541.078 132.478 545.117 129.081Z" fill="url(#cpgrad)"/>
<path d="M571.505 122.626C571.505 116.021 566.975 116.209 562.521 119.191V130.176C562.521 132.139 562.71 133.649 563.125 134.517L563.2 134.668H557.463V122.815C557.463 120.965 557.236 119.569 556.896 118.512L556.859 118.399L562.521 115.152V118.701C570.334 113.152 576.487 113.982 576.487 121.683V134.668H571.505V122.626Z" fill="url(#cpgrad)"/>
<path d="M601.396 132.063C599.434 135.951 594.073 136.404 593.922 131.912C588.638 135.385 581.353 137.008 581.353 131.572C581.353 127.533 589.431 124.325 593.96 122.173V121.305C593.96 119.078 594.262 115.794 591.884 115.794C588.94 115.794 586.901 118.399 581.843 123.57L583.391 117.342C585.543 116.436 589.204 115.152 592.035 115.152C596.112 115.152 599.018 117.077 599.018 120.965V131.346C599.018 132.743 599.773 134.29 601.321 132.063H601.396ZM586.486 129.723C586.486 133.875 590.261 133.498 593.922 131.421L593.96 122.664C590.601 124.4 586.486 126.477 586.486 129.723Z" fill="url(#cpgrad)"/>
<path d="M605.743 114.524C605.743 113.316 605.478 112.221 605.063 111.013L610.801 106.861V134.668H605.743V114.524Z" fill="url(#cpgrad)"/>
<path d="M671.802 114.524C671.802 113.316 671.537 112.221 671.122 111.013L676.86 106.861V130.327C676.86 131.837 676.973 133.196 677.539 134.668H671.802V132.894C666.177 137.536 657.193 134.856 657.193 125.759C657.193 116.813 665.724 112.925 671.802 116.247V114.524ZM662.44 124.665C662.44 132.214 667.498 135.876 671.802 132.176V117.153C667.008 114.435 662.44 117.228 662.44 124.665Z" fill="url(#cpgrad)"/>
<path d="M695.808 115.832L700.791 115.794V130.176C700.791 131.535 700.98 132.705 701.47 133.686L695.808 135.121V130.666C687.768 138.48 682.408 135.045 682.408 127.911V115.832L687.391 115.794V125.91C687.391 133.384 691.165 133.988 695.808 130.138V115.832Z" fill="url(#cpgrad)"/>
<path d="M725.142 127.949C721.632 138.669 706.08 137.046 706.08 125.382C706.08 116.436 715.555 113.039 723.066 116.474L723.821 121.796H723.783C720.046 112.661 709.439 114.737 710.798 124.551C711.969 133.007 721.254 135.536 725.067 127.911L725.142 127.949Z" fill="url(#cpgrad)"/>
<path d="M748.852 132.063C746.889 135.951 741.529 136.404 741.378 131.912C736.093 135.385 728.808 137.008 728.808 131.572C728.808 127.533 736.886 124.325 741.416 122.173V121.305C741.416 119.078 741.718 115.794 739.34 115.794C736.395 115.794 734.357 118.399 729.299 123.57L730.846 117.342C732.998 116.436 736.659 115.152 739.49 115.152C743.567 115.152 746.474 117.077 746.474 120.965V131.346C746.474 132.743 747.229 134.29 748.776 132.063H748.852ZM733.942 129.723C733.942 133.875 737.716 133.498 741.378 131.421L741.416 122.664C738.056 124.4 733.942 126.477 733.942 129.723Z" fill="url(#cpgrad)"/>
<path d="M762.282 130.931C759.376 136.819 751.788 136.555 751.788 129.949V116.511H749.788L756.884 112.133V115.794H762.169V116.511H756.884V128.251C756.884 132.441 760.168 133.535 762.131 130.855L762.282 130.931Z" fill="url(#cpgrad)"/>
<path d="M766.503 134.668V122.815C766.503 121.192 766.466 120.173 765.899 118.399L771.562 115.152V130.176C771.562 131.799 771.788 133.271 772.241 134.668H766.503ZM768.844 113.642C767.447 113.642 766.277 112.774 765.975 111.529C765.484 109.528 767.296 107.867 769.334 107.867C770.618 107.867 772.014 108.66 772.354 109.943C772.769 111.717 771.184 113.642 768.844 113.642Z" fill="url(#cpgrad)"/>
<path d="M793.079 132.78C788.814 136.329 782.548 135.762 778.962 131.61C775.414 127.307 776.018 121.079 780.245 117.493C784.473 113.944 790.701 114.473 794.249 118.776C797.798 122.966 797.269 129.27 793.079 132.78ZM789.871 129.081C793.872 125.722 795.722 121.381 793.759 119.04C791.758 116.662 787.229 117.87 783.265 121.23C779.188 124.589 777.376 128.93 779.339 131.308C781.302 133.649 785.832 132.478 789.871 129.081Z" fill="url(#cpgrad)"/>
<path d="M815.574 122.626C815.574 116.021 811.045 116.209 806.591 119.191V130.176C806.591 132.139 806.779 133.649 807.194 134.517L807.27 134.668H801.532V122.815C801.532 120.965 801.306 119.569 800.966 118.512L800.928 118.399L806.591 115.152V118.701C814.404 113.152 821.28 113.982 821.28 121.683V134.668H815.574V122.626Z" fill="url(#cpgrad)"/>
<path d="M625.512 101.33H650.798L652.854 110.029H652.758C651.754 108.07 647.452 102.238 637.749 102.238H632.156V117.151H635.024C639.326 117.151 642.051 115.813 646.018 113.375V121.501C642.481 119.159 639.326 118.06 635.024 118.06H632.156V133.977H637.749C647.261 133.977 651.85 126.998 652.806 125.421H652.901L650.798 134.789H625.512V101.33Z" fill="url(#cpgrad)"/>
<path d="M372.726 101.674H386.303C394.203 101.674 399.785 105.696 399.785 111.278C399.785 117.286 394.203 121.307 386.303 121.354L379.301 121.402V134.789H372.726V101.674ZM383.275 120.597C389.804 120.597 392.784 117.238 392.784 111.183C392.784 105.79 389.804 102.479 383.275 102.479H379.301V120.597H383.275Z" fill="url(#cpgrad)"/>
<path d="M214.524 122.845C207.945 141.444 181.111 138.321 181.111 118.491C181.111 103.867 199.142 96.6257 211.163 103.867L212.489 112.859L212.394 112.906C205.39 97.7143 186.648 98.9921 186.648 116.74C186.648 133.683 208.56 136.712 214.334 122.798L214.524 122.845Z" fill="url(#cpgrad)"/>
<path d="M225.219 66.1065C216.083 91.9352 178.819 87.5976 178.819 60.06C178.819 39.7519 203.859 29.6964 220.552 39.7519L222.393 52.2391L222.261 52.3048C212.534 31.208 186.508 32.9825 186.508 57.6283C186.508 81.1568 216.938 85.363 224.956 66.0407L225.219 66.1065Z" fill="url(#cpgrad)"/>
<path d="M234.277 36.5973H243.413V58.3513H266.941V36.5973H276.077V82.6027H266.941V59.6H243.413V82.6027H234.277V36.5973Z" fill="url(#cpgrad)"/>
<path d="M284.908 82.6027L291.611 69.1954L303.77 45.0097L308.37 35.8086L333.476 82.6027H323.158L315.994 68.7353L315.337 67.4209H294.24L293.386 69.1954C290.954 74.1903 291.677 77.8707 296.146 82.6027H284.908ZM295.029 65.7121H314.417L304.361 46.3241L295.029 65.7121Z" fill="url(#cpgrad)"/>
<path d="M342.48 36.5973H361.342C372.318 36.5973 380.073 42.1836 380.073 49.9388C380.073 58.2855 372.318 63.8719 361.342 63.9376L351.615 64.0034V82.6027H342.48V36.5973ZM357.136 62.8861C366.206 62.8861 370.346 58.2198 370.346 49.8074C370.346 42.3151 366.206 37.7145 357.136 37.7145H351.615V62.8861H357.136Z" fill="url(#cpgrad)"/>
<path d="M390.901 36.5973H400.037V81.354H402.863C413.97 81.354 420.739 75.3075 427.969 67.4209L428.166 67.6838L420.805 82.6027H390.901V36.5973Z" fill="url(#cpgrad)"/>
<path d="M431.84 82.6027L438.544 69.1954L450.702 45.0097L455.303 35.8086L480.409 82.6027H470.09L462.927 68.7353L462.269 67.4209H441.173L440.318 69.1954C437.886 74.1903 438.609 77.8707 443.078 82.6027H431.84ZM441.961 65.7121H461.349L451.294 46.3241L441.961 65.7121Z" fill="url(#cpgrad)"/>
<path d="M488.771 36.5973H497.906V82.6027H488.771V36.5973Z" fill="url(#cpgrad)"/>
<path d="M512.779 40.8692C511.464 39.5547 509.558 37.7145 508.441 36.7287V36.5973H520.468L550.043 68.8668V36.5973H551.62V83.3914H551.489L514.356 42.578V82.6027H512.779V40.8692Z" fill="url(#cpgrad)"/>
<path d="M609.187 66.1065C600.051 91.9352 562.787 87.5976 562.787 60.06C562.787 39.7519 587.827 29.6964 604.521 39.7519L606.361 52.2391L606.229 52.3048C596.502 31.208 570.477 32.9825 570.477 57.6283C570.477 81.1568 600.906 85.363 608.924 66.0407L609.187 66.1065Z" fill="url(#cpgrad)"/>
<path d="M629.997 62.7546C629.997 62.2946 629.865 61.966 629.602 61.5716L618.101 45.4697L612.252 37.3202L611.726 36.5973H622.241L622.57 37.123L628.091 44.8782L639.001 60.2572L648.596 47.31C650.765 44.3525 650.896 40.672 648.793 36.7287L648.727 36.5973H658.389L657.863 37.2545L650.239 47.31L639.592 61.243C639.329 61.6374 639.198 61.966 639.198 62.426V82.6027H629.997V62.7546Z" fill="url(#cpgrad)"/>
<path d="M678.633 36.5973H697.495C708.471 36.5973 716.226 42.1836 716.226 49.9388C716.226 58.2855 708.471 63.8719 697.495 63.9376L687.768 64.0034V82.6027H678.633V36.5973ZM693.289 62.8861C702.359 62.8861 706.499 58.2198 706.499 49.8074C706.499 42.3151 702.359 37.7145 693.289 37.7145H687.768V62.8861H693.289Z" fill="url(#cpgrad)"/>
<path d="M727.12 36.5973H747.034C757.746 36.5973 764.976 41.2635 764.976 47.9015C764.976 54.7365 759.061 59.1399 747.691 59.1399H740.133C740.067 62.0974 746.968 66.8294 757.221 71.4957C763.793 74.4532 767.736 78.988 769.313 82.6027H758.732C752.423 76.5563 746.442 73.4673 742.827 69.1297C740.659 66.5008 739.344 63.4776 739.344 59.0742V58.2198H743.419C752.357 58.2198 755.84 54.7365 755.84 47.9015C755.84 41.2635 751.043 37.5174 742.762 37.5174H736.19V82.6027H727.12V36.5973Z" fill="url(#cpgrad)"/>
<path d="M816.27 74.5189C807.924 84.7058 793.005 86.2174 782.818 78.1993C772.697 69.7212 771.251 54.9337 779.335 44.6153C787.616 34.4942 802.337 32.8511 812.524 41.3292C822.514 49.4131 824.223 64.332 816.27 74.5189ZM809.041 69.7212C816.73 60.06 819.951 48.4272 811.867 42.1179C804.9 36.7287 793.728 40.7377 785.972 50.4646C778.086 60.1258 777.429 72.0872 783.606 77.2792C792.019 84.3115 801.089 79.5138 809.041 69.7212Z" fill="url(#cpgrad)"/>
<path d="M660.426 83.3914C657.403 83.3914 654.971 80.9596 654.971 77.9364C654.971 74.9789 657.403 72.6129 660.426 72.6129C663.384 72.6129 665.75 74.9789 665.75 77.9364C665.75 80.9596 663.384 83.3914 660.426 83.3914Z" fill="url(#cpgrad)"/>
</svg>
