<svg width="435" height="478" viewBox="0 0 435 478" fill="none" xmlns="http://www.w3.org/2000/svg">
<g clip-path="url(#clip0_3843_116)">
<path d="M206.016 5.17267C125.516 1.18095 42.1876 29.0121 10.5859 43.4266V140.726C10.5859 176.485 23.0605 280.437 45.514 338.649C67.9675 396.862 201.074 474.227 210.912 475.902C215.13 476.62 219.425 476.034 225.541 474.286C237.184 470.96 345.726 379.398 369.011 360.271C392.296 341.144 421.403 259.646 421.403 242.182V43.4266C383.149 32.3385 286.515 9.16439 206.016 5.17267Z" fill="#313129" stroke="black"/>
<g filter="url(#filter0_di_3843_116)">
<mask id="path-2-inside-1_3843_116" fill="white">
<path d="M370.92 207.936C370.327 207.459 369.725 206.978 369.104 206.497C362.068 201.046 354.595 196.596 346.889 193.268C337.146 189.058 327.015 186.646 316.786 186.098C301.318 185.27 285.543 188.683 269.903 196.253C264.71 198.768 259.483 201.764 254.273 205.216C261.4 209.118 268.496 211.933 275.366 213.921C288.994 206.882 302.446 203.674 315.629 204.343C328.704 205.008 341.334 209.44 353.242 217.533C337.816 224.024 320.617 227.281 303.475 226.949C284.443 226.584 259.923 221.724 236.461 204.236C232.336 208.884 228.022 213.228 223.524 217.257C229.83 222.135 236.471 226.411 243.43 230.061C252.877 235.021 262.93 238.823 273.311 241.366C282.977 243.736 293.009 245.034 303.13 245.229C304.032 245.247 304.931 245.254 305.833 245.254C324.738 245.254 343.643 241.458 360.676 234.228C363.394 233.075 366.03 231.844 368.579 230.546C374.346 227.607 379.648 224.317 384.364 220.766C381.481 217.497 376.944 212.807 370.927 207.94L370.92 207.936Z"/>
<path d="M199.304 140.885C204.475 136.527 208.755 131.137 211.825 125.031C208.966 118.113 207.387 110.529 207.387 102.584C207.387 91.1026 210.672 80.1443 216.63 70.8309C222.583 80.1408 225.9 91.1132 225.9 102.584C225.9 122.35 216.133 139.866 201.186 150.534C204.831 155.182 208.42 160.117 211.941 165.327C215.368 162.869 218.6 160.117 221.618 157.089C228.671 150.011 234.209 141.769 238.076 132.59C242.084 123.079 244.118 112.984 244.118 102.581C244.118 85.818 238.71 69.8688 229.144 56.8413C225.544 51.9423 221.36 47.4571 216.651 43.499C211.977 47.4359 207.771 51.9246 204.151 56.8484C202.237 59.4482 200.485 62.1683 198.909 64.991C195.772 70.6187 193.35 76.6248 191.711 82.8467C190.023 89.2561 189.17 95.8955 189.17 102.581C189.17 112.984 191.204 123.079 195.208 132.59C196.414 135.448 197.778 138.214 199.301 140.885H199.304Z"/>
<path d="M96.5177 132.594C100.388 141.773 105.926 150.018 112.976 157.093C120.026 164.167 128.243 169.727 137.39 173.608C146.866 177.63 156.926 179.671 167.293 179.671C170.832 179.671 174.336 179.434 177.794 178.96C173.032 172.398 168.196 166.491 163.317 161.256C140.073 159.685 120.502 144.458 112.528 123.521C115.838 123.652 119.222 124.105 122.663 124.886C145.368 130.047 168.541 149.325 189.674 180.633C192.346 184.591 195.131 188.379 198.021 191.994C202.42 188.195 206.756 183.88 210.979 178.981C208.868 176.264 206.791 173.399 204.754 170.382C191.38 150.57 177.121 135.01 162.383 124.129C150.186 115.131 137.602 109.263 124.972 106.691C119.547 105.587 114.069 105.103 108.746 105.244C105.094 105.34 101.516 105.729 98.0758 106.415C95.009 107.024 92.5238 107.77 90.6838 108.421C91.001 112.711 91.6743 116.942 92.693 121.087C93.6554 125.003 94.9279 128.841 96.5071 132.59L96.5177 132.594Z"/>
<path d="M266.155 152.59C280.717 137.695 295.783 128.265 310.648 124.887C314.078 124.109 317.452 123.652 320.751 123.521C312.326 145.639 290.954 161.391 265.986 161.391C255.189 161.391 245.065 158.444 236.369 153.312C233.789 156.838 230.937 160.177 227.814 163.311C226.524 164.602 225.202 165.851 223.845 167.05C227.704 169.593 231.79 171.783 236.083 173.604C245.559 177.626 255.619 179.667 265.986 179.667C276.353 179.667 286.414 177.626 295.893 173.604C305.04 169.721 313.257 164.164 320.307 157.089C327.357 150.015 332.898 141.77 336.765 132.591C338.327 128.884 339.592 125.085 340.548 121.215C341.588 117.023 342.268 112.747 342.592 108.407C340.756 107.756 338.285 107.017 335.232 106.412C331.785 105.726 328.196 105.337 324.534 105.241C319.221 105.103 313.754 105.588 308.34 106.691C295.709 109.263 283.121 115.131 270.928 124.13C262.243 130.539 253.726 138.579 245.456 148.151C251.72 151.005 258.672 152.594 265.986 152.594C266.043 152.594 266.099 152.594 266.155 152.594V152.59Z"/>
<path d="M223.661 177.244C214.488 189.408 204.664 198.725 194.685 205.818C199.391 209.507 204.114 213.578 208.817 218.007C220.692 208.987 231.401 197.845 240.82 184.686C238.067 183.834 235.35 182.843 232.671 181.704C229.568 180.389 226.562 178.896 223.661 177.241V177.244Z"/>
<path d="M130.195 245.226C140.319 245.031 150.351 243.733 160.013 241.363C165.333 240.061 170.56 238.427 175.672 236.478C169.32 231.232 163.024 226.86 156.795 223.369C147.147 225.813 137.996 226.793 129.846 226.949C112.658 227.281 95.4138 224.006 79.9565 217.483C91.7794 209.461 104.322 205.05 117.311 204.353C143.453 202.949 170.631 216.797 198.176 245.523C202.021 241.398 206.054 237.009 210.288 232.34C210.372 232.248 210.457 232.156 210.541 232.06C203.442 224.727 196.268 218.219 189.148 212.651C180.575 205.948 171.851 200.431 163.221 196.257C147.581 188.691 131.806 185.274 116.338 186.101C106.109 186.65 95.9778 189.062 86.2346 193.271C78.5288 196.6 71.0558 201.049 64.0198 206.5C63.4311 206.957 62.8565 207.413 62.2925 207.866C56.2824 212.715 51.7456 217.395 48.8445 220.677C53.554 224.236 58.8521 227.536 64.6155 230.479C67.2029 231.802 69.8855 233.054 72.6491 234.228C89.6856 241.458 108.587 245.254 127.492 245.254C128.39 245.254 129.296 245.247 130.195 245.229V245.226Z"/>
<path d="M338.012 308.796C331.42 287.792 317.26 273.116 297.062 266.36C288.115 263.368 279.616 262.257 271.801 263.053C266.281 263.615 261.096 265.122 256.316 267.545C261.66 272.798 266.648 277.467 271.34 281.598C277.174 280.512 283.847 281.209 291.302 283.703C305.762 288.542 315.575 298.651 320.468 313.755C320.852 314.943 321.191 316.118 321.49 317.274C298.031 316.298 274.28 299.624 235.011 258.38C230.65 263.173 226.526 267.644 222.606 271.829C231.345 280.997 239.022 288.644 246.055 295.206C259.481 307.735 271.262 316.903 282.066 323.235C296.198 331.519 309.653 335.593 323.627 335.593H323.676C329.626 335.593 335.672 334.847 341.9 333.372C341.844 329.174 341.421 322.584 339.711 315.085C339.246 313.044 338.689 310.939 338.016 308.796H338.012Z"/>
<path d="M433.169 38.4198V196.391C433.169 220.953 430.05 244.932 423.895 267.665C418.297 288.351 410.063 308.449 399.428 327.405C381.584 359.211 356.754 388.39 325.628 414.126C313.449 424.197 300.265 433.758 286.44 442.548C275.389 449.573 263.901 456.127 252.296 462.027C247.911 464.256 243.85 466.219 240.174 467.931C231.879 471.786 225.555 474.354 221.956 475.741V352.735C221.956 334.009 224.174 317.667 228.545 304.162C229.68 300.653 230.959 297.357 232.373 294.272C235.031 296.872 237.597 299.327 240.082 301.644C242.303 303.716 244.481 305.697 246.621 307.597C246.364 308.318 246.113 309.058 245.87 309.811C242.088 321.487 240.17 335.926 240.17 352.731V447.67C241.594 446.966 243.064 446.23 244.57 445.462C261.99 436.573 288.259 421.409 314.489 399.649C381.15 344.338 414.948 275.953 414.948 196.387V50.4215C366.842 30.6274 293.381 18.8945 216.665 18.8945C139.95 18.8945 66.4778 30.6309 18.3717 50.4321V196.391C18.3717 276.162 51.9793 344.684 118.264 400.052C144.268 421.774 170.279 436.888 187.517 445.742C189.262 446.637 190.954 447.489 192.586 448.296V352.738C192.586 335.725 190.728 321.187 187.062 309.528C183.551 298.358 178.553 290.367 172.201 285.772C164.587 280.265 154.903 279.586 142.597 283.703C127.965 288.598 118.095 298.888 113.262 314.286C112.955 315.265 112.677 316.238 112.427 317.193C122.505 316.624 132.329 313.21 142.978 306.794C149.482 302.878 156.387 297.827 164.139 291.234C165.168 291.683 166.145 292.238 167.072 292.91C170.47 295.369 173.508 299.514 176.018 305.078C167.523 312.301 159.704 318.042 152.351 322.471C137.951 331.144 124.327 335.466 110.22 335.604C109.987 335.604 109.755 335.604 109.518 335.604C103.79 335.604 97.9775 334.918 91.9955 333.553C92.0413 329.396 92.4467 322.8 94.1458 315.269C94.6181 313.171 95.1892 311.003 95.8836 308.796C102.475 287.792 116.635 273.116 136.834 266.36C145.696 263.396 154.089 262.275 161.774 263.028C169.553 263.792 176.646 266.456 182.85 270.941C192.452 277.884 199.713 289.019 204.43 304.024C208.656 317.466 210.796 333.853 210.796 352.735V476.321C207.849 475.207 201.437 472.671 192.579 468.553C188.588 466.696 184.101 464.521 179.212 462.013C167.72 456.109 156.345 449.555 145.403 442.527C131.712 433.737 118.659 424.172 106.603 414.098C75.7874 388.358 51.2074 359.176 33.5434 327.373C23.0177 308.421 14.8713 288.326 9.32996 267.644C3.24223 244.918 0.154297 220.943 0.154297 196.391V38.4269L5.58637 36.0216C17.8429 30.5955 31.9007 25.6434 47.3651 21.2962C62.8012 16.9561 79.6755 13.2137 97.5228 10.1682C115.634 7.07671 134.804 4.69972 154.498 3.09737C174.739 1.45257 195.653 0.614258 216.665 0.614258C237.678 0.614258 258.589 1.44904 278.826 3.09737C298.517 4.69972 317.686 7.07671 335.794 10.1682C353.638 13.2102 370.512 16.9561 385.948 21.2927C401.412 25.6399 415.47 30.592 427.727 36.0145L433.162 38.4198H433.169Z"/>
<path d="M433.169 38.4198V196.391C433.169 220.953 430.05 244.932 423.895 267.665C418.297 288.351 410.063 308.449 399.428 327.405C381.584 359.211 356.754 388.39 325.628 414.126C313.449 424.197 300.265 433.758 286.44 442.548C275.389 449.573 263.901 456.127 252.296 462.027C247.911 464.256 243.85 466.219 240.174 467.931C231.879 471.786 225.555 474.354 221.956 475.741V352.735C221.956 334.009 224.174 317.667 228.545 304.162C229.68 300.653 230.959 297.357 232.373 294.272C235.031 296.872 237.597 299.327 240.082 301.644C242.303 303.716 244.481 305.697 246.621 307.597C246.364 308.318 246.113 309.058 245.87 309.811C242.088 321.487 240.17 335.926 240.17 352.731V447.67C241.594 446.966 243.064 446.23 244.57 445.462C261.99 436.573 288.259 421.409 314.489 399.649C381.15 344.338 414.948 275.953 414.948 196.387V50.4215C366.842 30.6274 293.381 18.8945 216.665 18.8945C139.95 18.8945 66.4778 30.6309 18.3717 50.4321V196.391C18.3717 276.162 51.9793 344.684 118.264 400.052C144.268 421.774 170.279 436.888 187.517 445.742C189.262 446.637 190.954 447.489 192.586 448.296V352.738C192.586 335.725 190.728 321.187 187.062 309.528C183.551 298.358 178.553 290.367 172.201 285.772C164.587 280.265 154.903 279.586 142.597 283.703C127.965 288.598 118.095 298.888 113.262 314.286C112.955 315.265 112.677 316.238 112.427 317.193C122.505 316.624 132.329 313.21 142.978 306.794C149.482 302.878 156.387 297.827 164.139 291.234C165.168 291.683 166.145 292.238 167.072 292.91C170.47 295.369 173.508 299.514 176.018 305.078C167.523 312.301 159.704 318.042 152.351 322.471C137.951 331.144 124.327 335.466 110.22 335.604C109.987 335.604 109.755 335.604 109.518 335.604C103.79 335.604 97.9775 334.918 91.9955 333.553C92.0413 329.396 92.4467 322.8 94.1458 315.269C94.6181 313.171 95.1892 311.003 95.8836 308.796C102.475 287.792 116.635 273.116 136.834 266.36C145.696 263.396 154.089 262.275 161.774 263.028C169.553 263.792 176.646 266.456 182.85 270.941C192.452 277.884 199.713 289.019 204.43 304.024C208.656 317.466 210.796 333.853 210.796 352.735V476.321C207.849 475.207 201.437 472.671 192.579 468.553C188.588 466.696 184.101 464.521 179.212 462.013C167.72 456.109 156.345 449.555 145.403 442.527C131.712 433.737 118.659 424.172 106.603 414.098C75.7874 388.358 51.2074 359.176 33.5434 327.373C23.0177 308.421 14.8713 288.326 9.32996 267.644C3.24223 244.918 0.154297 220.943 0.154297 196.391V38.4269L5.58637 36.0216C17.8429 30.5955 31.9007 25.6434 47.3651 21.2962C62.8012 16.9561 79.6755 13.2137 97.5228 10.1682C115.634 7.07671 134.804 4.69972 154.498 3.09737C174.739 1.45257 195.653 0.614258 216.665 0.614258C237.678 0.614258 258.589 1.44904 278.826 3.09737C298.517 4.69972 317.686 7.07671 335.794 10.1682C353.638 13.2102 370.512 16.9561 385.948 21.2927C401.412 25.6399 415.47 30.592 427.727 36.0145L433.162 38.4198H433.169Z"/>
<path d="M202.878 279.742C210.94 271.528 219.922 261.95 230.25 250.56C234.011 246.414 237.765 242.548 241.509 238.954C240.79 238.594 240.074 238.226 239.362 237.854C234.505 235.304 229.792 232.471 225.234 229.361C222.403 232.195 219.58 235.162 216.774 238.257C207.175 248.841 198.585 258.02 190.791 265.989C195.338 269.76 199.374 274.355 202.875 279.742H202.878Z"/>
</mask>
<path d="M370.92 207.936C370.327 207.459 369.725 206.978 369.104 206.497C362.068 201.046 354.595 196.596 346.889 193.268C337.146 189.058 327.015 186.646 316.786 186.098C301.318 185.27 285.543 188.683 269.903 196.253C264.71 198.768 259.483 201.764 254.273 205.216C261.4 209.118 268.496 211.933 275.366 213.921C288.994 206.882 302.446 203.674 315.629 204.343C328.704 205.008 341.334 209.44 353.242 217.533C337.816 224.024 320.617 227.281 303.475 226.949C284.443 226.584 259.923 221.724 236.461 204.236C232.336 208.884 228.022 213.228 223.524 217.257C229.83 222.135 236.471 226.411 243.43 230.061C252.877 235.021 262.93 238.823 273.311 241.366C282.977 243.736 293.009 245.034 303.13 245.229C304.032 245.247 304.931 245.254 305.833 245.254C324.738 245.254 343.643 241.458 360.676 234.228C363.394 233.075 366.03 231.844 368.579 230.546C374.346 227.607 379.648 224.317 384.364 220.766C381.481 217.497 376.944 212.807 370.927 207.94L370.92 207.936Z" fill="url(#paint0_linear_3843_116)"/>
<path d="M199.304 140.885C204.475 136.527 208.755 131.137 211.825 125.031C208.966 118.113 207.387 110.529 207.387 102.584C207.387 91.1026 210.672 80.1443 216.63 70.8309C222.583 80.1408 225.9 91.1132 225.9 102.584C225.9 122.35 216.133 139.866 201.186 150.534C204.831 155.182 208.42 160.117 211.941 165.327C215.368 162.869 218.6 160.117 221.618 157.089C228.671 150.011 234.209 141.769 238.076 132.59C242.084 123.079 244.118 112.984 244.118 102.581C244.118 85.818 238.71 69.8688 229.144 56.8413C225.544 51.9423 221.36 47.4571 216.651 43.499C211.977 47.4359 207.771 51.9246 204.151 56.8484C202.237 59.4482 200.485 62.1683 198.909 64.991C195.772 70.6187 193.35 76.6248 191.711 82.8467C190.023 89.2561 189.17 95.8955 189.17 102.581C189.17 112.984 191.204 123.079 195.208 132.59C196.414 135.448 197.778 138.214 199.301 140.885H199.304Z" fill="url(#paint1_linear_3843_116)"/>
<path d="M96.5177 132.594C100.388 141.773 105.926 150.018 112.976 157.093C120.026 164.167 128.243 169.727 137.39 173.608C146.866 177.63 156.926 179.671 167.293 179.671C170.832 179.671 174.336 179.434 177.794 178.96C173.032 172.398 168.196 166.491 163.317 161.256C140.073 159.685 120.502 144.458 112.528 123.521C115.838 123.652 119.222 124.105 122.663 124.886C145.368 130.047 168.541 149.325 189.674 180.633C192.346 184.591 195.131 188.379 198.021 191.994C202.42 188.195 206.756 183.88 210.979 178.981C208.868 176.264 206.791 173.399 204.754 170.382C191.38 150.57 177.121 135.01 162.383 124.129C150.186 115.131 137.602 109.263 124.972 106.691C119.547 105.587 114.069 105.103 108.746 105.244C105.094 105.34 101.516 105.729 98.0758 106.415C95.009 107.024 92.5238 107.77 90.6838 108.421C91.001 112.711 91.6743 116.942 92.693 121.087C93.6554 125.003 94.9279 128.841 96.5071 132.59L96.5177 132.594Z" fill="url(#paint2_linear_3843_116)"/>
<path d="M266.155 152.59C280.717 137.695 295.783 128.265 310.648 124.887C314.078 124.109 317.452 123.652 320.751 123.521C312.326 145.639 290.954 161.391 265.986 161.391C255.189 161.391 245.065 158.444 236.369 153.312C233.789 156.838 230.937 160.177 227.814 163.311C226.524 164.602 225.202 165.851 223.845 167.05C227.704 169.593 231.79 171.783 236.083 173.604C245.559 177.626 255.619 179.667 265.986 179.667C276.353 179.667 286.414 177.626 295.893 173.604C305.04 169.721 313.257 164.164 320.307 157.089C327.357 150.015 332.898 141.77 336.765 132.591C338.327 128.884 339.592 125.085 340.548 121.215C341.588 117.023 342.268 112.747 342.592 108.407C340.756 107.756 338.285 107.017 335.232 106.412C331.785 105.726 328.196 105.337 324.534 105.241C319.221 105.103 313.754 105.588 308.34 106.691C295.709 109.263 283.121 115.131 270.928 124.13C262.243 130.539 253.726 138.579 245.456 148.151C251.72 151.005 258.672 152.594 265.986 152.594C266.043 152.594 266.099 152.594 266.155 152.594V152.59Z" fill="url(#paint3_linear_3843_116)"/>
<path d="M223.661 177.244C214.488 189.408 204.664 198.725 194.685 205.818C199.391 209.507 204.114 213.578 208.817 218.007C220.692 208.987 231.401 197.845 240.82 184.686C238.067 183.834 235.35 182.843 232.671 181.704C229.568 180.389 226.562 178.896 223.661 177.241V177.244Z" fill="url(#paint4_linear_3843_116)"/>
<path d="M130.195 245.226C140.319 245.031 150.351 243.733 160.013 241.363C165.333 240.061 170.56 238.427 175.672 236.478C169.32 231.232 163.024 226.86 156.795 223.369C147.147 225.813 137.996 226.793 129.846 226.949C112.658 227.281 95.4138 224.006 79.9565 217.483C91.7794 209.461 104.322 205.05 117.311 204.353C143.453 202.949 170.631 216.797 198.176 245.523C202.021 241.398 206.054 237.009 210.288 232.34C210.372 232.248 210.457 232.156 210.541 232.06C203.442 224.727 196.268 218.219 189.148 212.651C180.575 205.948 171.851 200.431 163.221 196.257C147.581 188.691 131.806 185.274 116.338 186.101C106.109 186.65 95.9778 189.062 86.2346 193.271C78.5288 196.6 71.0558 201.049 64.0198 206.5C63.4311 206.957 62.8565 207.413 62.2925 207.866C56.2824 212.715 51.7456 217.395 48.8445 220.677C53.554 224.236 58.8521 227.536 64.6155 230.479C67.2029 231.802 69.8855 233.054 72.6491 234.228C89.6856 241.458 108.587 245.254 127.492 245.254C128.39 245.254 129.296 245.247 130.195 245.229V245.226Z" fill="url(#paint5_linear_3843_116)"/>
<path d="M338.012 308.796C331.42 287.792 317.26 273.116 297.062 266.36C288.115 263.368 279.616 262.257 271.801 263.053C266.281 263.615 261.096 265.122 256.316 267.545C261.66 272.798 266.648 277.467 271.34 281.598C277.174 280.512 283.847 281.209 291.302 283.703C305.762 288.542 315.575 298.651 320.468 313.755C320.852 314.943 321.191 316.118 321.49 317.274C298.031 316.298 274.28 299.624 235.011 258.38C230.65 263.173 226.526 267.644 222.606 271.829C231.345 280.997 239.022 288.644 246.055 295.206C259.481 307.735 271.262 316.903 282.066 323.235C296.198 331.519 309.653 335.593 323.627 335.593H323.676C329.626 335.593 335.672 334.847 341.9 333.372C341.844 329.174 341.421 322.584 339.711 315.085C339.246 313.044 338.689 310.939 338.016 308.796H338.012Z" fill="url(#paint6_linear_3843_116)"/>
<path d="M433.169 38.4198V196.391C433.169 220.953 430.05 244.932 423.895 267.665C418.297 288.351 410.063 308.449 399.428 327.405C381.584 359.211 356.754 388.39 325.628 414.126C313.449 424.197 300.265 433.758 286.44 442.548C275.389 449.573 263.901 456.127 252.296 462.027C247.911 464.256 243.85 466.219 240.174 467.931C231.879 471.786 225.555 474.354 221.956 475.741V352.735C221.956 334.009 224.174 317.667 228.545 304.162C229.68 300.653 230.959 297.357 232.373 294.272C235.031 296.872 237.597 299.327 240.082 301.644C242.303 303.716 244.481 305.697 246.621 307.597C246.364 308.318 246.113 309.058 245.87 309.811C242.088 321.487 240.17 335.926 240.17 352.731V447.67C241.594 446.966 243.064 446.23 244.57 445.462C261.99 436.573 288.259 421.409 314.489 399.649C381.15 344.338 414.948 275.953 414.948 196.387V50.4215C366.842 30.6274 293.381 18.8945 216.665 18.8945C139.95 18.8945 66.4778 30.6309 18.3717 50.4321V196.391C18.3717 276.162 51.9793 344.684 118.264 400.052C144.268 421.774 170.279 436.888 187.517 445.742C189.262 446.637 190.954 447.489 192.586 448.296V352.738C192.586 335.725 190.728 321.187 187.062 309.528C183.551 298.358 178.553 290.367 172.201 285.772C164.587 280.265 154.903 279.586 142.597 283.703C127.965 288.598 118.095 298.888 113.262 314.286C112.955 315.265 112.677 316.238 112.427 317.193C122.505 316.624 132.329 313.21 142.978 306.794C149.482 302.878 156.387 297.827 164.139 291.234C165.168 291.683 166.145 292.238 167.072 292.91C170.47 295.369 173.508 299.514 176.018 305.078C167.523 312.301 159.704 318.042 152.351 322.471C137.951 331.144 124.327 335.466 110.22 335.604C109.987 335.604 109.755 335.604 109.518 335.604C103.79 335.604 97.9775 334.918 91.9955 333.553C92.0413 329.396 92.4467 322.8 94.1458 315.269C94.6181 313.171 95.1892 311.003 95.8836 308.796C102.475 287.792 116.635 273.116 136.834 266.36C145.696 263.396 154.089 262.275 161.774 263.028C169.553 263.792 176.646 266.456 182.85 270.941C192.452 277.884 199.713 289.019 204.43 304.024C208.656 317.466 210.796 333.853 210.796 352.735V476.321C207.849 475.207 201.437 472.671 192.579 468.553C188.588 466.696 184.101 464.521 179.212 462.013C167.72 456.109 156.345 449.555 145.403 442.527C131.712 433.737 118.659 424.172 106.603 414.098C75.7874 388.358 51.2074 359.176 33.5434 327.373C23.0177 308.421 14.8713 288.326 9.32996 267.644C3.24223 244.918 0.154297 220.943 0.154297 196.391V38.4269L5.58637 36.0216C17.8429 30.5955 31.9007 25.6434 47.3651 21.2962C62.8012 16.9561 79.6755 13.2137 97.5228 10.1682C115.634 7.07671 134.804 4.69972 154.498 3.09737C174.739 1.45257 195.653 0.614258 216.665 0.614258C237.678 0.614258 258.589 1.44904 278.826 3.09737C298.517 4.69972 317.686 7.07671 335.794 10.1682C353.638 13.2102 370.512 16.9561 385.948 21.2927C401.412 25.6399 415.47 30.592 427.727 36.0145L433.162 38.4198H433.169Z" fill="url(#paint7_linear_3843_116)"/>
<path d="M433.169 38.4198V196.391C433.169 220.953 430.05 244.932 423.895 267.665C418.297 288.351 410.063 308.449 399.428 327.405C381.584 359.211 356.754 388.39 325.628 414.126C313.449 424.197 300.265 433.758 286.44 442.548C275.389 449.573 263.901 456.127 252.296 462.027C247.911 464.256 243.85 466.219 240.174 467.931C231.879 471.786 225.555 474.354 221.956 475.741V352.735C221.956 334.009 224.174 317.667 228.545 304.162C229.68 300.653 230.959 297.357 232.373 294.272C235.031 296.872 237.597 299.327 240.082 301.644C242.303 303.716 244.481 305.697 246.621 307.597C246.364 308.318 246.113 309.058 245.87 309.811C242.088 321.487 240.17 335.926 240.17 352.731V447.67C241.594 446.966 243.064 446.23 244.57 445.462C261.99 436.573 288.259 421.409 314.489 399.649C381.15 344.338 414.948 275.953 414.948 196.387V50.4215C366.842 30.6274 293.381 18.8945 216.665 18.8945C139.95 18.8945 66.4778 30.6309 18.3717 50.4321V196.391C18.3717 276.162 51.9793 344.684 118.264 400.052C144.268 421.774 170.279 436.888 187.517 445.742C189.262 446.637 190.954 447.489 192.586 448.296V352.738C192.586 335.725 190.728 321.187 187.062 309.528C183.551 298.358 178.553 290.367 172.201 285.772C164.587 280.265 154.903 279.586 142.597 283.703C127.965 288.598 118.095 298.888 113.262 314.286C112.955 315.265 112.677 316.238 112.427 317.193C122.505 316.624 132.329 313.21 142.978 306.794C149.482 302.878 156.387 297.827 164.139 291.234C165.168 291.683 166.145 292.238 167.072 292.91C170.47 295.369 173.508 299.514 176.018 305.078C167.523 312.301 159.704 318.042 152.351 322.471C137.951 331.144 124.327 335.466 110.22 335.604C109.987 335.604 109.755 335.604 109.518 335.604C103.79 335.604 97.9775 334.918 91.9955 333.553C92.0413 329.396 92.4467 322.8 94.1458 315.269C94.6181 313.171 95.1892 311.003 95.8836 308.796C102.475 287.792 116.635 273.116 136.834 266.36C145.696 263.396 154.089 262.275 161.774 263.028C169.553 263.792 176.646 266.456 182.85 270.941C192.452 277.884 199.713 289.019 204.43 304.024C208.656 317.466 210.796 333.853 210.796 352.735V476.321C207.849 475.207 201.437 472.671 192.579 468.553C188.588 466.696 184.101 464.521 179.212 462.013C167.72 456.109 156.345 449.555 145.403 442.527C131.712 433.737 118.659 424.172 106.603 414.098C75.7874 388.358 51.2074 359.176 33.5434 327.373C23.0177 308.421 14.8713 288.326 9.32996 267.644C3.24223 244.918 0.154297 220.943 0.154297 196.391V38.4269L5.58637 36.0216C17.8429 30.5955 31.9007 25.6434 47.3651 21.2962C62.8012 16.9561 79.6755 13.2137 97.5228 10.1682C115.634 7.07671 134.804 4.69972 154.498 3.09737C174.739 1.45257 195.653 0.614258 216.665 0.614258C237.678 0.614258 258.589 1.44904 278.826 3.09737C298.517 4.69972 317.686 7.07671 335.794 10.1682C353.638 13.2102 370.512 16.9561 385.948 21.2927C401.412 25.6399 415.47 30.592 427.727 36.0145L433.162 38.4198H433.169Z" fill="url(#paint8_linear_3843_116)"/>
<path d="M202.878 279.742C210.94 271.528 219.922 261.95 230.25 250.56C234.011 246.414 237.765 242.548 241.509 238.954C240.79 238.594 240.074 238.226 239.362 237.854C234.505 235.304 229.792 232.471 225.234 229.361C222.403 232.195 219.58 235.162 216.774 238.257C207.175 248.841 198.585 258.02 190.791 265.989C195.338 269.76 199.374 274.355 202.875 279.742H202.878Z" fill="url(#paint9_linear_3843_116)"/>
<path d="M370.92 207.936C370.327 207.459 369.725 206.978 369.104 206.497C362.068 201.046 354.595 196.596 346.889 193.268C337.146 189.058 327.015 186.646 316.786 186.098C301.318 185.27 285.543 188.683 269.903 196.253C264.71 198.768 259.483 201.764 254.273 205.216C261.4 209.118 268.496 211.933 275.366 213.921C288.994 206.882 302.446 203.674 315.629 204.343C328.704 205.008 341.334 209.44 353.242 217.533C337.816 224.024 320.617 227.281 303.475 226.949C284.443 226.584 259.923 221.724 236.461 204.236C232.336 208.884 228.022 213.228 223.524 217.257C229.83 222.135 236.471 226.411 243.43 230.061C252.877 235.021 262.93 238.823 273.311 241.366C282.977 243.736 293.009 245.034 303.13 245.229C304.032 245.247 304.931 245.254 305.833 245.254C324.738 245.254 343.643 241.458 360.676 234.228C363.394 233.075 366.03 231.844 368.579 230.546C374.346 227.607 379.648 224.317 384.364 220.766C381.481 217.497 376.944 212.807 370.927 207.94L370.92 207.936Z" stroke="#F7B654" stroke-width="6.32088" mask="url(#path-2-inside-1_3843_116)"/>
<path d="M199.304 140.885C204.475 136.527 208.755 131.137 211.825 125.031C208.966 118.113 207.387 110.529 207.387 102.584C207.387 91.1026 210.672 80.1443 216.63 70.8309C222.583 80.1408 225.9 91.1132 225.9 102.584C225.9 122.35 216.133 139.866 201.186 150.534C204.831 155.182 208.42 160.117 211.941 165.327C215.368 162.869 218.6 160.117 221.618 157.089C228.671 150.011 234.209 141.769 238.076 132.59C242.084 123.079 244.118 112.984 244.118 102.581C244.118 85.818 238.71 69.8688 229.144 56.8413C225.544 51.9423 221.36 47.4571 216.651 43.499C211.977 47.4359 207.771 51.9246 204.151 56.8484C202.237 59.4482 200.485 62.1683 198.909 64.991C195.772 70.6187 193.35 76.6248 191.711 82.8467C190.023 89.2561 189.17 95.8955 189.17 102.581C189.17 112.984 191.204 123.079 195.208 132.59C196.414 135.448 197.778 138.214 199.301 140.885H199.304Z" stroke="#F7B654" stroke-width="6.32088" mask="url(#path-2-inside-1_3843_116)"/>
<path d="M96.5177 132.594C100.388 141.773 105.926 150.018 112.976 157.093C120.026 164.167 128.243 169.727 137.39 173.608C146.866 177.63 156.926 179.671 167.293 179.671C170.832 179.671 174.336 179.434 177.794 178.96C173.032 172.398 168.196 166.491 163.317 161.256C140.073 159.685 120.502 144.458 112.528 123.521C115.838 123.652 119.222 124.105 122.663 124.886C145.368 130.047 168.541 149.325 189.674 180.633C192.346 184.591 195.131 188.379 198.021 191.994C202.42 188.195 206.756 183.88 210.979 178.981C208.868 176.264 206.791 173.399 204.754 170.382C191.38 150.57 177.121 135.01 162.383 124.129C150.186 115.131 137.602 109.263 124.972 106.691C119.547 105.587 114.069 105.103 108.746 105.244C105.094 105.34 101.516 105.729 98.0758 106.415C95.009 107.024 92.5238 107.77 90.6838 108.421C91.001 112.711 91.6743 116.942 92.693 121.087C93.6554 125.003 94.9279 128.841 96.5071 132.59L96.5177 132.594Z" stroke="#F7B654" stroke-width="6.32088" mask="url(#path-2-inside-1_3843_116)"/>
<path d="M266.155 152.59C280.717 137.695 295.783 128.265 310.648 124.887C314.078 124.109 317.452 123.652 320.751 123.521C312.326 145.639 290.954 161.391 265.986 161.391C255.189 161.391 245.065 158.444 236.369 153.312C233.789 156.838 230.937 160.177 227.814 163.311C226.524 164.602 225.202 165.851 223.845 167.05C227.704 169.593 231.79 171.783 236.083 173.604C245.559 177.626 255.619 179.667 265.986 179.667C276.353 179.667 286.414 177.626 295.893 173.604C305.04 169.721 313.257 164.164 320.307 157.089C327.357 150.015 332.898 141.77 336.765 132.591C338.327 128.884 339.592 125.085 340.548 121.215C341.588 117.023 342.268 112.747 342.592 108.407C340.756 107.756 338.285 107.017 335.232 106.412C331.785 105.726 328.196 105.337 324.534 105.241C319.221 105.103 313.754 105.588 308.34 106.691C295.709 109.263 283.121 115.131 270.928 124.13C262.243 130.539 253.726 138.579 245.456 148.151C251.72 151.005 258.672 152.594 265.986 152.594C266.043 152.594 266.099 152.594 266.155 152.594V152.59Z" stroke="#F7B654" stroke-width="6.32088" mask="url(#path-2-inside-1_3843_116)"/>
<path d="M223.661 177.244C214.488 189.408 204.664 198.725 194.685 205.818C199.391 209.507 204.114 213.578 208.817 218.007C220.692 208.987 231.401 197.845 240.82 184.686C238.067 183.834 235.35 182.843 232.671 181.704C229.568 180.389 226.562 178.896 223.661 177.241V177.244Z" stroke="#F7B654" stroke-width="6.32088" mask="url(#path-2-inside-1_3843_116)"/>
<path d="M130.195 245.226C140.319 245.031 150.351 243.733 160.013 241.363C165.333 240.061 170.56 238.427 175.672 236.478C169.32 231.232 163.024 226.86 156.795 223.369C147.147 225.813 137.996 226.793 129.846 226.949C112.658 227.281 95.4138 224.006 79.9565 217.483C91.7794 209.461 104.322 205.05 117.311 204.353C143.453 202.949 170.631 216.797 198.176 245.523C202.021 241.398 206.054 237.009 210.288 232.34C210.372 232.248 210.457 232.156 210.541 232.06C203.442 224.727 196.268 218.219 189.148 212.651C180.575 205.948 171.851 200.431 163.221 196.257C147.581 188.691 131.806 185.274 116.338 186.101C106.109 186.65 95.9778 189.062 86.2346 193.271C78.5288 196.6 71.0558 201.049 64.0198 206.5C63.4311 206.957 62.8565 207.413 62.2925 207.866C56.2824 212.715 51.7456 217.395 48.8445 220.677C53.554 224.236 58.8521 227.536 64.6155 230.479C67.2029 231.802 69.8855 233.054 72.6491 234.228C89.6856 241.458 108.587 245.254 127.492 245.254C128.39 245.254 129.296 245.247 130.195 245.229V245.226Z" stroke="#F7B654" stroke-width="6.32088" mask="url(#path-2-inside-1_3843_116)"/>
<path d="M338.012 308.796C331.42 287.792 317.26 273.116 297.062 266.36C288.115 263.368 279.616 262.257 271.801 263.053C266.281 263.615 261.096 265.122 256.316 267.545C261.66 272.798 266.648 277.467 271.34 281.598C277.174 280.512 283.847 281.209 291.302 283.703C305.762 288.542 315.575 298.651 320.468 313.755C320.852 314.943 321.191 316.118 321.49 317.274C298.031 316.298 274.28 299.624 235.011 258.38C230.65 263.173 226.526 267.644 222.606 271.829C231.345 280.997 239.022 288.644 246.055 295.206C259.481 307.735 271.262 316.903 282.066 323.235C296.198 331.519 309.653 335.593 323.627 335.593H323.676C329.626 335.593 335.672 334.847 341.9 333.372C341.844 329.174 341.421 322.584 339.711 315.085C339.246 313.044 338.689 310.939 338.016 308.796H338.012Z" stroke="#F7B654" stroke-width="6.32088" mask="url(#path-2-inside-1_3843_116)"/>
<path d="M433.169 38.4198V196.391C433.169 220.953 430.05 244.932 423.895 267.665C418.297 288.351 410.063 308.449 399.428 327.405C381.584 359.211 356.754 388.39 325.628 414.126C313.449 424.197 300.265 433.758 286.44 442.548C275.389 449.573 263.901 456.127 252.296 462.027C247.911 464.256 243.85 466.219 240.174 467.931C231.879 471.786 225.555 474.354 221.956 475.741V352.735C221.956 334.009 224.174 317.667 228.545 304.162C229.68 300.653 230.959 297.357 232.373 294.272C235.031 296.872 237.597 299.327 240.082 301.644C242.303 303.716 244.481 305.697 246.621 307.597C246.364 308.318 246.113 309.058 245.87 309.811C242.088 321.487 240.17 335.926 240.17 352.731V447.67C241.594 446.966 243.064 446.23 244.57 445.462C261.99 436.573 288.259 421.409 314.489 399.649C381.15 344.338 414.948 275.953 414.948 196.387V50.4215C366.842 30.6274 293.381 18.8945 216.665 18.8945C139.95 18.8945 66.4778 30.6309 18.3717 50.4321V196.391C18.3717 276.162 51.9793 344.684 118.264 400.052C144.268 421.774 170.279 436.888 187.517 445.742C189.262 446.637 190.954 447.489 192.586 448.296V352.738C192.586 335.725 190.728 321.187 187.062 309.528C183.551 298.358 178.553 290.367 172.201 285.772C164.587 280.265 154.903 279.586 142.597 283.703C127.965 288.598 118.095 298.888 113.262 314.286C112.955 315.265 112.677 316.238 112.427 317.193C122.505 316.624 132.329 313.21 142.978 306.794C149.482 302.878 156.387 297.827 164.139 291.234C165.168 291.683 166.145 292.238 167.072 292.91C170.47 295.369 173.508 299.514 176.018 305.078C167.523 312.301 159.704 318.042 152.351 322.471C137.951 331.144 124.327 335.466 110.22 335.604C109.987 335.604 109.755 335.604 109.518 335.604C103.79 335.604 97.9775 334.918 91.9955 333.553C92.0413 329.396 92.4467 322.8 94.1458 315.269C94.6181 313.171 95.1892 311.003 95.8836 308.796C102.475 287.792 116.635 273.116 136.834 266.36C145.696 263.396 154.089 262.275 161.774 263.028C169.553 263.792 176.646 266.456 182.85 270.941C192.452 277.884 199.713 289.019 204.43 304.024C208.656 317.466 210.796 333.853 210.796 352.735V476.321C207.849 475.207 201.437 472.671 192.579 468.553C188.588 466.696 184.101 464.521 179.212 462.013C167.72 456.109 156.345 449.555 145.403 442.527C131.712 433.737 118.659 424.172 106.603 414.098C75.7874 388.358 51.2074 359.176 33.5434 327.373C23.0177 308.421 14.8713 288.326 9.32996 267.644C3.24223 244.918 0.154297 220.943 0.154297 196.391V38.4269L5.58637 36.0216C17.8429 30.5955 31.9007 25.6434 47.3651 21.2962C62.8012 16.9561 79.6755 13.2137 97.5228 10.1682C115.634 7.07671 134.804 4.69972 154.498 3.09737C174.739 1.45257 195.653 0.614258 216.665 0.614258C237.678 0.614258 258.589 1.44904 278.826 3.09737C298.517 4.69972 317.686 7.07671 335.794 10.1682C353.638 13.2102 370.512 16.9561 385.948 21.2927C401.412 25.6399 415.47 30.592 427.727 36.0145L433.162 38.4198H433.169Z" stroke="#F7B654" stroke-width="6.32088" mask="url(#path-2-inside-1_3843_116)"/>
<path d="M433.169 38.4198V196.391C433.169 220.953 430.05 244.932 423.895 267.665C418.297 288.351 410.063 308.449 399.428 327.405C381.584 359.211 356.754 388.39 325.628 414.126C313.449 424.197 300.265 433.758 286.44 442.548C275.389 449.573 263.901 456.127 252.296 462.027C247.911 464.256 243.85 466.219 240.174 467.931C231.879 471.786 225.555 474.354 221.956 475.741V352.735C221.956 334.009 224.174 317.667 228.545 304.162C229.68 300.653 230.959 297.357 232.373 294.272C235.031 296.872 237.597 299.327 240.082 301.644C242.303 303.716 244.481 305.697 246.621 307.597C246.364 308.318 246.113 309.058 245.87 309.811C242.088 321.487 240.17 335.926 240.17 352.731V447.67C241.594 446.966 243.064 446.23 244.57 445.462C261.99 436.573 288.259 421.409 314.489 399.649C381.15 344.338 414.948 275.953 414.948 196.387V50.4215C366.842 30.6274 293.381 18.8945 216.665 18.8945C139.95 18.8945 66.4778 30.6309 18.3717 50.4321V196.391C18.3717 276.162 51.9793 344.684 118.264 400.052C144.268 421.774 170.279 436.888 187.517 445.742C189.262 446.637 190.954 447.489 192.586 448.296V352.738C192.586 335.725 190.728 321.187 187.062 309.528C183.551 298.358 178.553 290.367 172.201 285.772C164.587 280.265 154.903 279.586 142.597 283.703C127.965 288.598 118.095 298.888 113.262 314.286C112.955 315.265 112.677 316.238 112.427 317.193C122.505 316.624 132.329 313.21 142.978 306.794C149.482 302.878 156.387 297.827 164.139 291.234C165.168 291.683 166.145 292.238 167.072 292.91C170.47 295.369 173.508 299.514 176.018 305.078C167.523 312.301 159.704 318.042 152.351 322.471C137.951 331.144 124.327 335.466 110.22 335.604C109.987 335.604 109.755 335.604 109.518 335.604C103.79 335.604 97.9775 334.918 91.9955 333.553C92.0413 329.396 92.4467 322.8 94.1458 315.269C94.6181 313.171 95.1892 311.003 95.8836 308.796C102.475 287.792 116.635 273.116 136.834 266.36C145.696 263.396 154.089 262.275 161.774 263.028C169.553 263.792 176.646 266.456 182.85 270.941C192.452 277.884 199.713 289.019 204.43 304.024C208.656 317.466 210.796 333.853 210.796 352.735V476.321C207.849 475.207 201.437 472.671 192.579 468.553C188.588 466.696 184.101 464.521 179.212 462.013C167.72 456.109 156.345 449.555 145.403 442.527C131.712 433.737 118.659 424.172 106.603 414.098C75.7874 388.358 51.2074 359.176 33.5434 327.373C23.0177 308.421 14.8713 288.326 9.32996 267.644C3.24223 244.918 0.154297 220.943 0.154297 196.391V38.4269L5.58637 36.0216C17.8429 30.5955 31.9007 25.6434 47.3651 21.2962C62.8012 16.9561 79.6755 13.2137 97.5228 10.1682C115.634 7.07671 134.804 4.69972 154.498 3.09737C174.739 1.45257 195.653 0.614258 216.665 0.614258C237.678 0.614258 258.589 1.44904 278.826 3.09737C298.517 4.69972 317.686 7.07671 335.794 10.1682C353.638 13.2102 370.512 16.9561 385.948 21.2927C401.412 25.6399 415.47 30.592 427.727 36.0145L433.162 38.4198H433.169Z" stroke="#F7B654" stroke-width="6.32088" mask="url(#path-2-inside-1_3843_116)"/>
<path d="M202.878 279.742C210.94 271.528 219.922 261.95 230.25 250.56C234.011 246.414 237.765 242.548 241.509 238.954C240.79 238.594 240.074 238.226 239.362 237.854C234.505 235.304 229.792 232.471 225.234 229.361C222.403 232.195 219.58 235.162 216.774 238.257C207.175 248.841 198.585 258.02 190.791 265.989C195.338 269.76 199.374 274.355 202.875 279.742H202.878Z" stroke="#F7B654" stroke-width="6.32088" mask="url(#path-2-inside-1_3843_116)"/>
</g>
</g>
<defs>
<filter id="filter0_di_3843_116" x="0.154297" y="0.614258" width="436.176" height="478.867" filterUnits="userSpaceOnUse" color-interpolation-filters="sRGB">
<feFlood flood-opacity="0" result="BackgroundImageFix"/>
<feColorMatrix in="SourceAlpha" type="matrix" values="0 0 0 0 0 0 0 0 0 0 0 0 0 0 0 0 0 0 127 0" result="hardAlpha"/>
<feOffset dx="1.58022" dy="1.58022"/>
<feComposite in2="hardAlpha" operator="out"/>
<feColorMatrix type="matrix" values="0 0 0 0 0.987457 0 0 0 0 0.0521161 0 0 0 0 0.0521161 0 0 0 1 0"/>
<feBlend mode="normal" in2="BackgroundImageFix" result="effect1_dropShadow_3843_116"/>
<feBlend mode="normal" in="SourceGraphic" in2="effect1_dropShadow_3843_116" result="shape"/>
<feColorMatrix in="SourceAlpha" type="matrix" values="0 0 0 0 0 0 0 0 0 0 0 0 0 0 0 0 0 0 127 0" result="hardAlpha"/>
<feOffset dx="3.16044" dy="3.16044"/>
<feGaussianBlur stdDeviation="3.16044"/>
<feComposite in2="hardAlpha" operator="arithmetic" k2="-1" k3="1"/>
<feColorMatrix type="matrix" values="0 0 0 0 0.951389 0 0 0 0 0.742741 0 0 0 0 0.425482 0 0 0 1 0"/>
<feBlend mode="normal" in2="shape" result="effect2_innerShadow_3843_116"/>
</filter>
<linearGradient id="paint0_linear_3843_116" x1="216.662" y1="0.614258" x2="85.3498" y2="660.001" gradientUnits="userSpaceOnUse">
<stop offset="0.341666" stop-color="#F9AA00"/>
<stop offset="1" stop-color="#FD6645"/>
</linearGradient>
<linearGradient id="paint1_linear_3843_116" x1="216.662" y1="0.614258" x2="85.3498" y2="660.001" gradientUnits="userSpaceOnUse">
<stop offset="0.341666" stop-color="#F9AA00"/>
<stop offset="1" stop-color="#FD6645"/>
</linearGradient>
<linearGradient id="paint2_linear_3843_116" x1="216.662" y1="0.614258" x2="85.3498" y2="660.001" gradientUnits="userSpaceOnUse">
<stop offset="0.341666" stop-color="#F9AA00"/>
<stop offset="1" stop-color="#FD6645"/>
</linearGradient>
<linearGradient id="paint3_linear_3843_116" x1="216.662" y1="0.614258" x2="85.3498" y2="660.001" gradientUnits="userSpaceOnUse">
<stop offset="0.341666" stop-color="#F9AA00"/>
<stop offset="1" stop-color="#FD6645"/>
</linearGradient>
<linearGradient id="paint4_linear_3843_116" x1="216.662" y1="0.614258" x2="85.3498" y2="660.001" gradientUnits="userSpaceOnUse">
<stop offset="0.341666" stop-color="#F9AA00"/>
<stop offset="1" stop-color="#FD6645"/>
</linearGradient>
<linearGradient id="paint5_linear_3843_116" x1="216.662" y1="0.614258" x2="85.3498" y2="660.001" gradientUnits="userSpaceOnUse">
<stop offset="0.341666" stop-color="#F9AA00"/>
<stop offset="1" stop-color="#FD6645"/>
</linearGradient>
<linearGradient id="paint6_linear_3843_116" x1="216.662" y1="0.614258" x2="85.3498" y2="660.001" gradientUnits="userSpaceOnUse">
<stop offset="0.341666" stop-color="#F9AA00"/>
<stop offset="1" stop-color="#FD6645"/>
</linearGradient>
<linearGradient id="paint7_linear_3843_116" x1="216.662" y1="0.614258" x2="85.3498" y2="660.001" gradientUnits="userSpaceOnUse">
<stop offset="0.341666" stop-color="#F9AA00"/>
<stop offset="1" stop-color="#FD6645"/>
</linearGradient>
<linearGradient id="paint8_linear_3843_116" x1="216.662" y1="0.614258" x2="85.3498" y2="660.001" gradientUnits="userSpaceOnUse">
<stop offset="0.341666" stop-color="#F9AA00"/>
<stop offset="1" stop-color="#FD6645"/>
</linearGradient>
<linearGradient id="paint9_linear_3843_116" x1="216.662" y1="0.614258" x2="85.3498" y2="660.001" gradientUnits="userSpaceOnUse">
<stop offset="0.341666" stop-color="#F9AA00"/>
<stop offset="1" stop-color="#FD6645"/>
</linearGradient>
<clipPath id="clip0_3843_116">
<rect width="435" height="478" fill="white"/>
</clipPath>
</defs>
</svg>
